<svg xmlns="http://www.w3.org/2000/svg" xmlns:xlink="http://www.w3.org/1999/xlink" xmlns:svgjs="http://svgjs.dev/svgjs" version="1.1" width="100%" height="100%" viewBox="0 0 1000 600"><rect width="1000" height="600" x="0" y="0" fill="#000000"/><g><rect width="333.3333333333333" height="333.3333333333333" y="306.2659414164352" fill="#ffffff" transform="matrix(0.44007311845486874,0,0,0.4400731184548688,0,91.87508328105835)" x="284.0436401367187"/><path d="M339.24321754906623 547.9325935747141L339.24321754906623 397.9325895506146L388.91112276900157 397.9325895506146Q405.7894197640946 397.9325895506146 417.4811567450705 403.0898469657819Q429.1728937260464 408.24710438094917 435.2971369065576 418.2978958207355Q441.45068268601864 428.31938466157203 441.45068268601864 442.9706841364792L441.45068268601864 442.9706841364792Q441.45068268601864 453.255896367864 437.2604110361952 461.75365006331015Q433.09944198532156 470.25140375875634 425.30495066467097 476.17052874661886Q417.53976194297013 482.11895633343113 406.7271029304887 484.9906110305129L406.7271029304887 484.9906110305129L401.15960913002397 487.15900335279923L354.48056900296973 487.15900335279923L354.275450810321 470.9839687325017L389.5264773469476 470.9839687325017Q400.2219259636299 470.9839687325017 407.34245750843473 467.23323606692543Q414.46298905323965 463.4532008023994 418.0672087240668 457.06523423133984Q421.67142839489395 450.67726766028034 421.67142839489395 442.9706841364792L421.67142839489395 442.9706841364792Q421.67142839489395 434.2971148473341 418.2723269167155 427.82124047942517Q414.873225438537 421.3160635125664 407.60618089898304 417.77044903963883Q400.3391363594291 414.2248345667113 388.91112276900157 414.2248345667113L388.91112276900157 414.2248345667113L359.13968223599016 414.2248345667113L359.13968223599016 547.9325935747141L339.24321754906623 547.9325935747141ZM448.1316752465763 547.9325935747141L426.91659360691074 547.9325935747141L390.4348579143919 479.9505640111449L411.1517953719106 479.83335361534563L448.1316752465763 546.7018844188219L448.1316752465763 547.9325935747141ZM469.2588490893924 397.9325895506146L489.1260111773666 397.9325895506146L489.1260111773666 547.9325935747141L469.2588490893924 547.9325935747141L469.2588490893924 397.9325895506146ZM484.81852913174384 465.416474932037L551.9800859247184 465.416474932037L551.9800859247184 481.67941734918395L484.81852913174384 481.67941734918395L484.81852913174384 465.416474932037ZM484.81852913174384 397.9325895506146L562.1773903592536 397.9325895506146L562.1773903592536 414.2248345667113L484.81852913174384 414.2248345667113L484.81852913174384 397.9325895506146Z " fill="#000080" transform="matrix(0.44007311845486874,0,0,0.4400731184548688,0,91.87508328105835)"/><path d="M700.7103043843548 515.3068743603841L700.7103043843548 404.04040698734536L737.5527857669101 404.04040698734536Q750.0727086438138 404.04040698734536 758.7453635533358 407.8659389775104Q767.4180184628576 411.6914709676754 771.9608377011785 419.1469111530539Q776.5253929167164 426.58061536121545 776.5253929167164 437.4486039696389L776.5253929167164 437.4486039696389Q776.5253929167164 445.0779319727521 773.4171481747073 451.3813653656377Q770.3306394099151 457.68479875852324 764.5488694702339 462.0754661563263Q758.7888355077695 466.4878695313462 750.768259914753 468.6179952985972L750.768259914753 468.6179952985972L746.6384242435521 470.22645761264386L712.0130125371151 470.22645761264386L711.8608606965971 458.2281981889444L738.0092412884638 458.2281981889444Q745.9428729726129 458.2281981889444 751.2247154363068 455.445993105188Q756.5065579000005 452.6420520442148 759.1800830976728 447.9036090109422Q761.8536082953448 443.1651659776696 761.8536082953448 437.4486039696389L761.8536082953448 437.4486039696389Q761.8536082953448 431.01475471345225 759.3322349381906 426.21110374852907Q756.8108615810364 421.3857168063891 751.4203392312584 418.7556635631506Q746.0298168814803 416.1256103199122 737.5527857669101 416.1256103199122L737.5527857669101 416.1256103199122L715.4690329145938 416.1256103199122L715.4690329145938 515.3068743603841L700.7103043843548 515.3068743603841ZM781.4811957221575 515.3068743603841L765.7443482171603 515.3068743603841L738.6830565821862 464.87940721729956L754.0503924744968 464.79246330843216L781.4811957221575 514.3939633172765L781.4811957221575 515.3068743603841ZM791.2623854697387 474.8779567370491L791.2623854697387 474.8779567370491L791.2623854697387 473.11734258248447Q791.2623854697387 464.18385594636044 793.8707027357601 456.5110559888135Q796.4572840245651 448.81652005404976 801.3478788983555 443.1216940232359Q806.2384737721461 437.4486039696389 813.193986481537 434.27515129597924Q820.149499190928 431.1016986223196 828.7786821460161 431.1016986223196L828.7786821460161 431.1016986223196Q837.4948090099717 431.1016986223196 844.4937936737963 434.27515129597924Q851.4710423604042 437.4486039696389 856.4051091886283 443.1216940232359Q861.3391760168527 448.81652005404976 863.9474932828743 456.5110559888135Q866.534074571679 464.18385594636044 866.534074571679 473.11734258248447L866.534074571679 473.11734258248447L866.534074571679 474.8779567370491Q866.534074571679 483.8331793503899 863.9474932828743 491.46250735350316Q861.3391760168527 499.11357133383325 856.4051091886283 504.80839736464713Q851.4710423604042 510.50322339546096 844.5590016054468 513.6549400919038Q837.6469608504897 516.8283927655634 828.930833986534 516.8283927655634L828.930833986534 516.8283927655634Q820.2364430997955 516.8283927655634 813.2809303904044 513.6549400919038Q806.3254176810135 510.50322339546096 801.3913508527892 504.80839736464713Q796.4572840245651 499.11357133383325 793.8707027357601 491.46250735350316Q791.2623854697387 483.8331793503899 791.2623854697387 474.8779567370491ZM805.4125066379058 473.11734258248447L805.4125066379058 473.11734258248447L805.4125066379058 474.8779567370491Q805.4125066379058 481.0727102438504 806.8470811342177 486.52844052527894Q808.3033916077466 492.00590678392433 811.2377485320208 496.2009503867758Q814.193841433512 500.3959939896272 818.6279807857486 502.80868746069723Q823.0621201379854 505.22138093176716 828.930833986534 505.22138093176716L828.930833986534 505.22138093176716Q834.756075880649 505.22138093176716 839.146743278452 502.80868746069723Q843.5374106762551 500.3959939896272 846.4282956460959 496.2009503867758Q849.3409165931532 492.00590678392433 850.8406990211156 486.52844052527894Q852.3187454718613 481.0727102438504 852.3187454718613 474.8779567370491L852.3187454718613 474.8779567370491L852.3187454718613 473.11734258248447Q852.3187454718613 467.0095329845505 850.8406990211156 461.55380270312196Q849.3409165931532 456.07633644447657 846.4065596688788 451.83782088719147Q843.4504667673878 447.5993053299063 839.0597993695847 445.1648758816195Q834.6691319717816 442.7087104561158 828.7786821460161 442.7087104561158L828.7786821460161 442.7087104561158Q822.975176229118 442.7087104561158 818.5845088313149 445.1648758816195Q814.193841433512 447.5993053299063 811.2377485320208 451.83782088719147Q808.3033916077466 456.07633644447657 806.8470811342177 461.55380270312196Q805.4125066379058 467.0095329845505 805.4125066379058 473.11734258248447ZM936.5239212099257 450.81622995799967L937.8280798429366 432.62321702749887L950.674042378093 432.62321702749887L950.674042378093 513.5462602058195Q950.674042378093 524.4794567458935 946.2399030258562 532.195728657874Q941.8057636736196 539.9120005698546 933.8938679666871 543.9331563549713Q925.9819722597551 547.9325761628711 915.6791190589697 547.9325761628711L915.6791190589697 547.9325761628711Q911.3971315472509 547.9325761628711 905.6153616075696 546.6066815526435Q899.8553276451053 545.259050965199 894.3126534548092 542.0855982915393Q888.7699792645133 538.9121456178798 885.0313911832156 533.5650952225354L885.0313911832156 533.5650952225354L892.4433594141603 525.1750080168325Q897.6382579689869 531.4349694552844 903.3330839998007 533.8693989035712Q909.0279100306145 536.325564329075 914.5923201981273 536.325564329075L914.5923201981273 536.325564329075Q921.3304731353498 536.325564329075 926.2210680091403 533.8041909719207Q931.1116628829309 531.2828176147665 933.8286600350368 526.3487507865423Q936.5239212099257 521.414683958318 936.5239212099257 514.2418114767586L936.5239212099257 514.2418114767586L936.5239212099257 450.81622995799967ZM880.9015555120147 474.8779567370491L880.9015555120147 474.8779567370491L880.9015555120147 473.26949442300236Q880.9015555120147 463.7926083564572 883.1620971425668 456.0546004672597Q885.4009027959021 448.29485660084543 889.6611543304041 442.7087104561158Q893.8996698876892 437.144300288603 899.9205355767558 434.1229994554613Q905.9631372430392 431.1016986223196 913.5272573145019 431.1016986223196L913.5272573145019 431.1016986223196Q921.3304731353498 431.1016986223196 927.1774510066816 433.81869577442546Q933.0244288780134 436.51395694931443 937.1107925947806 441.687119526924Q941.1971563115478 446.8385461273167 943.5663778281842 454.0983625177435Q945.9355993448205 461.3581789081704 946.848510387928 470.5307612936797L946.848510387928 470.5307612936797L946.848510387928 477.5514819347212Q946.000807276471 486.65885638858003 943.6098497826179 493.91867277900684Q941.1971563115478 501.1784891694337 937.1107925947806 506.28644381539266Q933.0244288780134 511.4161344385685 927.1339790522479 514.1331315906743Q921.2435292264825 516.8283927655634 913.3751054739839 516.8283927655634L913.3751054739839 516.8283927655634Q905.9631372430392 516.8283927655634 899.9640075311895 513.6984120463375Q893.9648778193398 510.5684313271115 889.6828903076209 504.9170772507313Q885.4009027959021 499.26572317435114 883.1620971425668 491.5711872395874Q880.9015555120147 483.8983872820405 880.9015555120147 474.8779567370491ZM895.0299407029652 473.26949442300236L895.0299407029652 473.26949442300236L895.0299407029652 474.8779567370491Q895.0299407029652 481.0727102438504 896.2906273815422 486.5067045480621Q897.5513140601195 491.91896287505693 900.2031032805749 496.04879854625784Q902.8331565238132 500.17863421745875 906.9629921950141 502.50438377966134Q911.092827866215 504.8301333418639 916.8093898742457 504.8301333418639L916.8093898742457 504.8301333418639Q923.8518464925041 504.8301333418639 928.4381376852587 501.8523044631559Q933.0244288780134 498.8744755844479 935.7196900529025 493.9838807106574Q938.4366872050082 489.09328583686687 939.9799415874045 483.3549878516193L939.9799415874045 483.3549878516193L939.9799415874045 464.9446151489501Q939.1322384759474 460.74957154609865 937.4150962758165 456.8153596698494Q935.6979540756856 452.8811477936001 932.9809569235797 449.772903051591Q930.2639597714738 446.68639428679876 926.2862759407908 444.86057220058365Q922.3085921101078 443.0130141371517 916.9615417147636 443.0130141371517L916.9615417147636 443.0130141371517Q911.1580357978655 443.0130141371517 907.0064641494478 445.42570760822167Q902.8331565238132 447.83840107929166 900.2031032805749 451.9899727277094Q897.5513140601195 456.16328035334396 896.2906273815422 461.6190106347725Q895.0299407029652 467.0964768934179 895.0299407029652 473.26949442300236ZM1006.4485599165218 516.8283927655634L1006.4485599165218 516.8283927655634Q997.8193769614338 516.8283927655634 990.820392297609 513.894035841289Q983.8431436110013 510.95967891701474 978.8221328739096 505.61262852167044Q973.822858114035 500.24384214910924 971.1493329163627 492.9188178270319Q968.4758077186905 485.5720575277377 968.4758077186905 476.877666640999L968.4758077186905 476.877666640999L968.4758077186905 473.66074201290564Q968.4758077186905 463.5752485842887 971.4536365973986 455.6633528773565Q974.4314654761065 447.75145717042426 979.5611560992825 442.252254934562Q984.6691107452414 436.7530526986998 991.1681679330786 433.9273756605097Q997.6672251209159 431.1016986223196 1004.6227378303067 431.1016986223196L1004.6227378303067 431.1016986223196Q1013.4910165347803 431.1016986223196 1019.9466017681837 434.14473543267815Q1026.4021870015872 437.20950822025355 1030.5320226727881 442.6652385016821Q1034.6401223667722 448.1427047603275 1036.6398322707223 455.51120103683854Q1038.6178061974551 462.87969731334965 1038.6178061974551 471.5958241773052L1038.6178061974551 471.5958241773052L1038.6178061974551 477.94272952462444L976.8876309016102 477.94272952462444L976.8876309016102 466.4009256224788L1024.489421006505 466.4009256224788L1024.489421006505 465.33586273885334Q1024.185117325469 459.8366605029911 1022.2288793759526 454.6417619481647Q1020.2726414264364 449.44686339333833 1016.0775978235849 446.07778692472704Q1011.8825542207337 442.7087104561158 1004.6227378303067 442.7087104561158L1004.6227378303067 442.7087104561158Q999.7973508881666 442.7087104561158 995.7544591258334 444.73015633728255Q991.7115673634999 446.7516022184493 988.7989464164423 450.72928604913227Q985.8863254693847 454.70696987981523 984.2995991325549 460.44526786506276Q982.6911368185083 466.1618298730935 982.6911368185083 473.66074201290564L982.6911368185083 473.66074201290564L982.6911368185083 476.877666640999Q982.6911368185083 482.7463804895476 984.3213351097718 487.9195430671571Q985.9732693782523 493.07096966754983 989.1467220519119 496.9617095893654Q992.3201747255714 500.8741854883978 996.8629939638924 503.06951918729936Q1001.4058132022135 505.2865888634177 1007.2093191191116 505.2865888634177L1007.2093191191116 505.2865888634177Q1014.7082312589237 505.2865888634177 1019.90312981375 502.24355205305915Q1025.0980283685767 499.1787792654838 1028.9887682903923 494.0708246195248L1028.9887682903923 494.0708246195248L1037.55274331383 500.8741854883978Q1034.8792181161575 504.9170772507313 1030.7493824449566 508.59045740037845Q1026.6195467737557 512.2421015728087 1020.620417061906 514.5461151577945Q1014.6212873500563 516.8283927655634 1006.4485599165218 516.8283927655634ZM1008.1439661394359 420.407597831631L996.7543140778082 420.407597831631L1011.5782505396978 397.9325973894114L1028.6192566777058 397.9325973894114L1008.1439661394359 420.407597831631ZM1068.8742864833062 432.62321702749887L1069.2655340732094 445.62133140317326L1069.2655340732094 515.3068743603841L1055.1371488822588 515.3068743603841L1055.1371488822588 432.62321702749887L1068.8742864833062 432.62321702749887ZM1095.0878750068232 432.1667615059451L1095.0878750068232 432.1667615059451L1095.0226670751726 445.3170277221374Q1093.2620529206083 444.9257801322342 1091.6970625609952 444.81710024614995Q1090.132072201382 444.7084203600657 1088.1323622974323 444.7084203600657L1088.1323622974323 444.7084203600657Q1083.2417674236417 444.7084203600657 1079.503179342344 446.229938765245Q1075.7645912610465 447.75145717042426 1073.156273995025 450.5119262769638Q1070.56969270622 453.2506594062865 1069.0699102782578 457.0327194420178Q1067.591863827512 460.8147794777492 1067.1354083059582 465.33586273885334L1067.1354083059582 465.33586273885334L1063.1577244752752 467.6181403466222Q1063.1577244752752 460.1409641840269 1064.635770926021 453.55496308732234Q1066.1355533539831 446.99069796783465 1069.2655340732094 441.9044792990925Q1072.3955147924353 436.8182606303503 1077.2426377117922 433.9708476149434Q1082.1114966083655 431.1016986223196 1088.8279135683715 431.1016986223196L1088.8279135683715 431.1016986223196Q1090.3494319735505 431.1016986223196 1092.3491418775006 431.4494742577892Q1094.3271158042335 431.77551391604186 1095.0878750068232 432.1667615059451ZM1109.3032041066413 432.62321702749887L1123.5185332064589 432.62321702749887L1123.5185332064589 515.3068743603841L1109.3032041066413 515.3068743603841L1109.3032041066413 432.62321702749887ZM1108.2381412230156 410.69161601570045L1108.2381412230156 410.69161601570045Q1108.2381412230156 407.25733161543866 1110.3465310130496 404.8881100988024Q1112.433184825867 402.5188885821661 1116.563020497068 402.5188885821661L1116.563020497068 402.5188885821661Q1120.6276482366184 402.5188885821661 1122.8012459583028 404.8881100988024Q1124.9748436799878 407.25733161543866 1124.9748436799878 410.69161601570045L1124.9748436799878 410.69161601570045Q1124.9748436799878 413.97374857544435 1122.8012459583028 416.3212341148638Q1120.6276482366184 418.6469836770664 1116.563020497068 418.6469836770664L1116.563020497068 418.6469836770664Q1112.433184825867 418.6469836770664 1110.3465310130496 416.3212341148638Q1108.2381412230156 413.97374857544435 1108.2381412230156 410.69161601570045ZM1142.4723053395492 474.8779567370491L1142.4723053395492 474.8779567370491L1142.4723053395492 473.11734258248447Q1142.4723053395492 464.18385594636044 1145.080622605571 456.5110559888135Q1147.6672038943757 448.81652005404976 1152.5577987681663 443.1216940232359Q1157.4483936419565 437.4486039696389 1164.4039063513478 434.27515129597924Q1171.3594190607387 431.1016986223196 1179.988602015827 431.1016986223196L1179.988602015827 431.1016986223196Q1188.7047288797826 431.1016986223196 1195.7037135436071 434.27515129597924Q1202.6809622302148 437.4486039696389 1207.6150290584392 443.1216940232359Q1212.549095886663 448.81652005404976 1215.1356771754681 456.5110559888135Q1217.7439944414896 464.18385594636044 1217.7439944414896 473.11734258248447L1217.7439944414896 473.11734258248447L1217.7439944414896 474.8779567370491Q1217.7439944414896 483.8331793503899 1215.1356771754681 491.46250735350316Q1212.549095886663 499.11357133383325 1207.6150290584392 504.80839736464713Q1202.6809622302148 510.50322339546096 1195.7689214752577 513.6549400919038Q1188.8568807203005 516.8283927655634 1180.1407538563449 516.8283927655634L1180.1407538563449 516.8283927655634Q1171.4246269923892 516.8283927655634 1164.4691142829984 513.6549400919038Q1157.535337550824 510.50322339546096 1152.6012707226 504.80839736464713Q1147.6672038943757 499.11357133383325 1145.080622605571 491.46250735350316Q1142.4723053395492 483.8331793503899 1142.4723053395492 474.8779567370491ZM1156.6006905304998 473.11734258248447L1156.6006905304998 473.11734258248447L1156.6006905304998 474.8779567370491Q1156.6006905304998 481.0727102438504 1158.0570010040283 486.52844052527894Q1159.5133114775572 492.00590678392433 1162.4476684018314 496.2009503867758Q1165.4037613033224 500.3959939896272 1169.8379006555592 502.80868746069723Q1174.2503040305792 505.22138093176716 1180.1407538563449 505.22138093176716L1180.1407538563449 505.22138093176716Q1185.9442597732427 505.22138093176716 1190.3566631482627 502.80868746069723Q1194.7473305460658 500.3959939896272 1197.6382155159067 496.2009503867758Q1200.550836462964 492.00590678392433 1202.0288829137098 486.52844052527894Q1203.528665341672 481.0727102438504 1203.528665341672 474.8779567370491L1203.528665341672 474.8779567370491L1203.528665341672 473.11734258248447Q1203.528665341672 467.0095329845505 1202.0288829137098 461.55380270312196Q1200.550836462964 456.07633644447657 1197.5947435614726 451.83782088719147Q1194.6603866371984 447.5993053299063 1190.2697192393953 445.1648758816195Q1185.8790518415922 442.7087104561158 1179.988602015827 442.7087104561158L1179.988602015827 442.7087104561158Q1174.1850960989286 442.7087104561158 1169.7944287011255 445.1648758816195Q1165.4037613033224 447.5993053299063 1162.4476684018314 451.83782088719147Q1159.5133114775572 456.07633644447657 1158.0570010040283 461.55380270312196Q1156.6006905304998 467.0095329845505 1156.6006905304998 473.11734258248447ZM1276.4311329269763 404.04040698734536L1291.1681254799983 404.04040698734536L1291.1681254799983 515.3068743603841L1276.4311329269763 515.3068743603841L1276.4311329269763 404.04040698734536ZM1287.9729368291219 454.0983625177435L1337.791796610135 454.0983625177435L1337.791796610135 466.1618298730935L1287.9729368291219 466.1618298730935L1287.9729368291219 454.0983625177435ZM1287.9729368291219 404.04040698734536L1345.3559166815971 404.04040698734536L1345.3559166815971 416.1256103199122L1287.9729368291219 416.1256103199122L1287.9729368291219 404.04040698734536ZM1395.1095685309597 516.8283927655634L1395.1095685309597 516.8283927655634Q1386.4586495986546 516.8283927655634 1379.4814009120469 513.894035841289Q1372.4824162482223 510.95967891701474 1367.4831414883474 505.61262852167044Q1362.4621307512557 500.24384214910924 1359.7886055535837 492.9188178270319Q1357.1150803559117 485.5720575277377 1357.1150803559117 476.877666640999L1357.1150803559117 476.877666640999L1357.1150803559117 473.66074201290564Q1357.1150803559117 463.5752485842887 1360.0929092346196 455.6633528773565Q1363.0924740905443 447.75145717042426 1368.2004287365035 442.252254934562Q1373.3301193596794 436.7530526986998 1379.8291765475165 433.9273756605097Q1386.306497758137 431.1016986223196 1393.262010467528 431.1016986223196L1393.262010467528 431.1016986223196Q1402.130289172001 431.1016986223196 1408.5858744054049 434.14473543267815Q1415.0414596388082 437.20950822025355 1419.171295310009 442.6652385016821Q1423.30113098121 448.1427047603275 1425.2791049079433 455.51120103683854Q1427.278814811893 462.87969731334965 1427.278814811893 471.5958241773052L1427.278814811893 471.5958241773052L1427.278814811893 477.94272952462444L1365.5269035388314 477.94272952462444L1365.5269035388314 466.4009256224788L1413.128693643726 466.4009256224788L1413.128693643726 465.33586273885334Q1412.82438996269 459.8366605029911 1410.8898879903904 454.6417619481647Q1408.933650040874 449.44686339333833 1404.738606438023 446.07778692472704Q1400.5218268579547 442.7087104561158 1393.262010467528 442.7087104561158L1393.262010467528 442.7087104561158Q1388.4583595026047 442.7087104561158 1384.3937317630543 444.73015633728255Q1380.3508400007208 446.7516022184493 1377.4599550308803 450.72928604913227Q1374.5473340838225 454.70696987981523 1372.9388717697761 460.44526786506276Q1371.3304094557293 466.1618298730935 1371.3304094557293 473.66074201290564L1371.3304094557293 473.66074201290564L1371.3304094557293 476.877666640999Q1371.3304094557293 482.7463804895476 1372.9823437242098 487.9195430671571Q1374.612542015473 493.07096966754983 1377.785994689133 496.9617095893654Q1380.9594473627926 500.8741854883978 1385.5022666011137 503.06951918729936Q1390.066821816651 505.2865888634177 1395.8703277335494 505.2865888634177L1395.8703277335494 505.2865888634177Q1403.3475038961446 505.2865888634177 1408.5424024509712 502.24355205305915Q1413.7373010057972 499.1787792654838 1417.6497769048297 494.0708246195248L1417.6497769048297 494.0708246195248L1426.1920159510505 500.8741854883978Q1423.5184907533785 504.9170772507313 1419.4103910593944 508.59045740037845Q1415.2805553881935 512.2421015728087 1409.281425676344 514.5461151577945Q1403.282295964494 516.8283927655634 1395.1095685309597 516.8283927655634ZM1457.535295097744 432.62321702749887L1457.90480671043 445.62133140317326L1457.90480671043 515.3068743603841L1443.7764215194798 515.3068743603841L1443.7764215194798 432.62321702749887L1457.535295097744 432.62321702749887ZM1483.748883621261 432.1667615059451L1483.748883621261 432.1667615059451L1483.6619397123936 445.3170277221374Q1481.9013255578288 444.9257801322342 1480.3363351982161 444.81710024614995Q1478.771344838603 444.7084203600657 1476.7933709118702 444.7084203600657L1476.7933709118702 444.7084203600657Q1471.9027760380795 444.7084203600657 1468.164187956782 446.229938765245Q1464.4038638982674 447.75145717042426 1461.8172826094628 450.5119262769638Q1459.208965343441 453.2506594062865 1457.7309188926952 457.0327194420178Q1456.231136464733 460.8147794777492 1455.7746809431792 465.33586273885334L1455.7746809431792 465.33586273885334L1451.7969971124962 467.6181403466222Q1451.7969971124962 460.1409641840269 1453.2967795404588 453.55496308732234Q1454.7748259912041 446.99069796783465 1457.90480671043 441.9044792990925Q1461.056523406873 436.8182606303503 1465.9036463262296 433.9708476149434Q1470.7507692455865 431.1016986223196 1477.467186205592 431.1016986223196L1477.467186205592 431.1016986223196Q1479.0104405879883 431.1016986223196 1480.9884145147216 431.4494742577892Q1482.9881244186713 431.77551391604186 1483.748883621261 432.1667615059451ZM1510.1798319169466 432.62321702749887L1510.9405911195363 450.2728305275785L1510.9405911195363 515.3068743603841L1496.812205928586 515.3068743603841L1496.812205928586 432.62321702749887L1510.1798319169466 432.62321702749887ZM1507.593250628142 470.8350649747156L1507.593250628142 470.8350649747156L1501.7028008023763 470.59596922533024Q1501.7680087340268 462.11893811076 1504.2241741595308 454.9025936747669Q1506.6586036078174 447.6862492387737 1511.0927429600542 442.3391988434294Q1515.526882312291 436.97041247086827 1521.6781638646585 434.03605554659396Q1527.8294454170264 431.1016986223196 1535.3283575568385 431.1016986223196L1535.3283575568385 431.1016986223196Q1541.4361671547726 431.1016986223196 1546.3267620285628 432.7318969135831Q1551.2173569023535 434.3838311820635 1554.695113257049 437.9702674228432Q1558.1728696117443 441.5567036636229 1559.9986916979597 447.2515296944368Q1561.8462497613914 452.94635572525067 1561.8462497613914 461.11908315878503L1561.8462497613914 461.11908315878503L1561.8462497613914 515.3068743603841L1547.6309206615738 515.3068743603841L1547.6309206615738 460.96693131826714Q1547.6309206615738 454.48961010764674 1545.718154666491 450.5553982313975Q1543.8053886714088 446.59945037793136 1540.1320085217617 444.81710024614995Q1536.4803643493315 443.0130141371517 1531.1115779767701 443.0130141371517L1531.1115779767701 443.0130141371517Q1525.851471490293 443.0130141371517 1521.5260120241405 445.23008381327Q1517.2222885352048 447.4471534893884 1514.1140437931963 451.337893411204Q1511.0275350284037 455.2503693102364 1509.310392828273 460.2496440701112Q1507.593250628142 465.24891882998594 1507.593250628142 470.8350649747156ZM1631.9882482401563 501.1784891694337L1631.9882482401563 501.1784891694337L1631.9882482401563 458.5977098016308Q1631.9882482401563 453.7071149278403 1630.0320102906398 450.07720673262685Q1628.0975083183407 446.4472985374135 1624.1850324193083 444.46932461068036Q1620.2942924974923 442.4913506839473 1614.5777304894618 442.4913506839473L1614.5777304894618 442.4913506839473Q1609.208944116901 442.4913506839473 1605.2095243090007 444.3171727701625Q1601.1883685238845 446.1429948563776 1598.949562870549 449.1208237350856Q1596.6890212399967 452.12038859101045 1596.6890212399967 455.55467299127224L1596.6890212399967 455.55467299127224L1582.5389000718296 455.55467299127224Q1582.5389000718296 451.1205336390355 1584.8429136568157 446.7516022184493Q1587.1251912645844 442.40440677507996 1591.450650730737 438.8614424887339Q1595.7761101968895 435.29674222517104 1601.8404478403895 433.1883524351369Q1607.9265214611069 431.1016986223196 1615.403697623702 431.1016986223196L1615.403697623702 431.1016986223196Q1624.4241281686936 431.1016986223196 1631.3361689236508 434.14473543267815Q1638.248209678608 437.20950822025355 1642.1824215548572 443.3607897726212Q1646.1166334311065 449.5120713249888 1646.1166334311065 458.74986164214874L1646.1166334311065 458.74986164214874L1646.1166334311065 497.26601327040123Q1646.1166334311065 501.39584894160214 1646.8556566564794 506.0690840432242Q1647.5729439046354 510.72058316762946 1649.0292543781643 514.0896596362406L1649.0292543781643 514.0896596362406L1649.0292543781643 515.3068743603841L1634.2922618251418 515.3068743603841Q1633.2054629642994 512.8507089348805 1632.5968556022276 508.76434521811325Q1631.9882482401563 504.67798150134604 1631.9882482401563 501.1784891694337ZM1618.0120148897236 465.1837108983354L1634.4444136656598 465.1837108983354L1634.5965655061777 475.1170524864344L1620.2942924974923 475.1170524864344Q1614.251690831209 475.1170524864344 1609.5132477979364 476.07343548397563Q1604.7965407418806 477.0298184815169 1601.5796161137873 478.9425844765994Q1598.362691485694 480.8336144944651 1596.6890212399967 483.7027634870889Q1595.0153509942998 486.57191247971264 1595.0153509942998 490.39744446987766L1595.0153509942998 490.39744446987766Q1595.0153509942998 494.2881843916932 1596.7542291716477 497.5051090197866Q1598.514843326212 500.7220336478799 1602.0795435897749 502.59132768852874Q1605.6225078761208 504.46062172917755 1610.8174064309474 504.46062172917755L1610.8174064309474 504.46062172917755Q1617.3164636187844 504.46062172917755 1622.2940024014424 501.70015262263803Q1627.2498052068836 498.96141949331536 1630.1841621311578 494.98373566263234Q1633.1402550326488 491.0060518319494 1633.3576148048173 487.26746375065176L1633.3576148048173 487.26746375065176L1639.400216471101 494.0708246195248Q1638.8568170406797 497.26601327040123 1636.4875955240432 501.1784891694337Q1634.140109984624 505.06922909124927 1630.1841621311578 508.6121933775953Q1626.2499502549085 512.1768936411581 1620.8811638823472 514.5026432033608Q1615.4906415325695 516.8283927655634 1608.7524885953471 516.8283927655634L1608.7524885953471 516.8283927655634Q1600.3624013896442 516.8283927655634 1594.0589679967584 513.5462602058195Q1587.755534603873 510.2641276460756 1584.2777782491776 504.72145345577974Q1580.8000218944821 499.1787792654838 1580.8000218944821 492.31021046496016L1580.8000218944821 492.31021046496016Q1580.8000218944821 485.6590014366051 1583.3866031832868 480.5727827678629Q1585.9949204493082 475.48656409912076 1590.8855153230988 472.09575165329267Q1595.7761101968895 468.6832032302477 1602.644678997413 466.9443250529Q1609.5132477979364 465.1837108983354 1618.0120148897236 465.1837108983354L1618.0120148897236 465.1837108983354ZM1681.7419000895184 432.62321702749887L1682.502659292108 450.2728305275785L1682.502659292108 515.3068743603841L1668.3742741011574 515.3068743603841L1668.3742741011574 432.62321702749887L1681.7419000895184 432.62321702749887ZM1679.133582823497 470.8350649747156L1679.133582823497 470.8350649747156L1673.264868974948 470.59596922533024Q1673.330076906599 462.11893811076 1675.7862423321026 454.9025936747669Q1678.2206717803892 447.6862492387737 1682.654811132626 442.3391988434294Q1687.0889504848628 436.97041247086827 1693.2402320372303 434.03605554659396Q1699.3915135895982 431.1016986223196 1706.8686897521934 431.1016986223196L1706.8686897521934 431.1016986223196Q1712.9982353273444 431.1016986223196 1717.888830201135 432.7318969135831Q1722.7794250749253 434.3838311820635 1726.2571814296207 437.9702674228432Q1729.7349377843166 441.5567036636229 1731.5607598705315 447.2515296944368Q1733.3865819567468 452.94635572525067 1733.3865819567468 461.11908315878503L1733.3865819567468 461.11908315878503L1733.3865819567468 515.3068743603841L1719.1712528569287 515.3068743603841L1719.1712528569287 460.96693131826714Q1719.1712528569287 454.48961010764674 1717.2802228390628 450.5553982313975Q1715.3674568439806 446.59945037793136 1711.6940766943335 444.81710024614995Q1708.0206965446864 443.0130141371517 1702.673646149342 443.0130141371517L1702.673646149342 443.0130141371517Q1697.391803685648 443.0130141371517 1693.0880801967128 445.23008381327Q1688.7626207305598 447.4471534893884 1685.6761119657676 451.337893411204Q1682.5678672237586 455.2503693102364 1680.8507250236275 460.2496440701112Q1679.133582823497 465.24891882998594 1679.133582823497 470.8350649747156ZM1808.1366076054828 515.3068743603841L1806.8976569041224 499.26572317435114L1806.8976569041224 397.9325973894114L1821.11298600394 397.9325973894114L1821.11298600394 515.3068743603841L1808.1366076054828 515.3068743603841ZM1751.2752912062115 474.8779567370491L1751.2752912062115 474.8779567370491L1751.2752912062115 473.26949442300236Q1751.2752912062115 463.7926083564572 1753.601040768414 456.0546004672597Q1755.9267903306168 448.29485660084543 1760.2522497967693 442.7087104561158Q1764.5777092629219 437.144300288603 1770.5768389747714 434.1229994554613Q1776.5759686866213 431.1016986223196 1783.987936917566 431.1016986223196L1783.987936917566 431.1016986223196Q1791.7694167611971 431.1016986223196 1797.6163946325287 433.81869577442546Q1803.4633725038607 436.51395694931443 1807.549736220628 441.687119526924Q1811.636099937395 446.8385461273167 1814.0053214540312 454.0983625177435Q1816.3745429706678 461.3581789081704 1817.287454013775 470.5307612936797L1817.287454013775 470.5307612936797L1817.287454013775 477.5514819347212Q1816.4614868795347 486.65885638858003 1814.048793408465 493.91867277900684Q1811.636099937395 501.1784891694337 1807.549736220628 506.28644381539266Q1803.4633725038607 511.4161344385685 1797.572922678095 514.1331315906743Q1791.7042088295466 516.8283927655634 1783.835785077048 516.8283927655634L1783.835785077048 516.8283927655634Q1776.5759686866213 516.8283927655634 1770.5768389747714 513.6984120463375Q1764.5777092629219 510.5684313271115 1760.2522497967693 504.9170772507313Q1755.9267903306168 499.26572317435114 1753.601040768414 491.5711872395874Q1751.2752912062115 483.8983872820405 1751.2752912062115 474.8779567370491ZM1765.4906203060295 473.26949442300236L1765.4906203060295 473.26949442300236L1765.4906203060295 474.8779567370491Q1765.4906203060295 481.0727102438504 1766.7513069846063 486.5067045480621Q1768.0119936631836 491.91896287505693 1770.6855188608556 496.04879854625784Q1773.359044058528 500.17863421745875 1777.4888797297285 502.50438377966134Q1781.61871540093 504.8301333418639 1787.3352774089603 504.8301333418639L1787.3352774089603 504.8301333418639Q1794.3777340272186 504.8301333418639 1798.9205532655396 501.8523044631559Q1803.4633725038607 498.8744755844479 1806.2238416104 493.9838807106574Q1808.9625747397226 489.09328583686687 1810.505829122119 483.3549878516193L1810.505829122119 483.3549878516193L1810.505829122119 464.9446151489501Q1809.5711821017944 460.74957154609865 1807.8540399016633 456.8153596698494Q1806.1368977015327 452.8811477936001 1803.419900549427 449.772903051591Q1800.7246393745381 446.68639428679876 1796.7904274982884 444.86057220058365Q1792.8344796448223 443.0130141371517 1787.4874292494783 443.0130141371517L1787.4874292494783 443.0130141371517Q1781.68392333258 443.0130141371517 1777.5323516841622 445.42570760822167Q1773.359044058528 447.83840107929166 1770.6855188608556 451.9899727277094Q1768.0119936631836 456.16328035334396 1766.7513069846063 461.6190106347725Q1765.4906203060295 467.0964768934179 1765.4906203060295 473.26949442300236ZM1877.3656950411396 516.8283927655634L1877.3656950411396 516.8283927655634Q1868.7147761088345 516.8283927655634 1861.7375274222272 513.894035841289Q1854.7385427584022 510.95967891701474 1849.7392679985278 505.61262852167044Q1844.739993238653 500.24384214910924 1842.0664680409805 492.9188178270319Q1839.3712068660916 485.5720575277377 1839.3712068660916 476.877666640999L1839.3712068660916 476.877666640999L1839.3712068660916 473.66074201290564Q1839.3712068660916 463.5752485842887 1842.3707717220163 455.6633528773565Q1845.3486006007242 447.75145717042426 1850.4565552466834 442.252254934562Q1855.5862458698593 436.7530526986998 1862.0853030576964 433.9273756605097Q1868.562624268317 431.1016986223196 1875.5181369777079 431.1016986223196L1875.5181369777079 431.1016986223196Q1884.386415682181 431.1016986223196 1890.8420009155848 434.14473543267815Q1897.2975861489886 437.20950822025355 1901.427421820189 442.6652385016821Q1905.55725749139 448.1427047603275 1907.5352314181232 455.51120103683854Q1909.5349413220729 462.87969731334965 1909.5349413220729 471.5958241773052L1909.5349413220729 471.5958241773052L1909.5349413220729 477.94272952462444L1847.7830300490114 477.94272952462444L1847.7830300490114 466.4009256224788L1895.3848201539058 466.4009256224788L1895.3848201539058 465.33586273885334Q1895.08051647287 459.8366605029911 1893.1460145005703 454.6417619481647Q1891.1897765510544 449.44686339333833 1886.994732948203 446.07778692472704Q1882.7779533681346 442.7087104561158 1875.5181369777079 442.7087104561158L1875.5181369777079 442.7087104561158Q1870.7144860127846 442.7087104561158 1866.671594250451 444.73015633728255Q1862.6069665109007 446.7516022184493 1859.7160815410602 450.72928604913227Q1856.803460594003 454.70696987981523 1855.194998279956 460.44526786506276Q1853.5865359659092 466.1618298730935 1853.5865359659092 473.66074201290564L1853.5865359659092 473.66074201290564L1853.5865359659092 476.877666640999Q1853.5865359659092 482.7463804895476 1855.2384702343898 487.9195430671571Q1856.8904045028698 493.07096966754983 1860.0421211993125 496.9617095893654Q1863.2155738729725 500.8741854883978 1867.7801290885104 503.06951918729936Q1872.3229483268315 505.2865888634177 1878.1264542437293 505.2865888634177L1878.1264542437293 505.2865888634177Q1885.6036304063246 505.2865888634177 1890.798528961151 502.24355205305915Q1896.0151634931944 499.1787792654838 1899.9059034150096 494.0708246195248L1899.9059034150096 494.0708246195248L1908.4698784384477 500.8741854883978Q1905.7963532407753 504.9170772507313 1901.6665175695744 508.59045740037845Q1897.5366818983734 512.2421015728087 1891.537552186524 514.5461151577945Q1885.538422474674 516.8283927655634 1877.3656950411396 516.8283927655634ZM1974.1777375649754 493.37527334858567L1974.1777375649754 493.37527334858567Q1974.1777375649754 490.31050056101026 1972.851842954748 487.68044731777184Q1971.5042123673034 485.05039407453336 1967.4178486505361 482.8767963528487Q1963.331484933769 480.68146265394716 1955.1587575002345 479.09473631711734L1955.1587575002345 479.09473631711734Q1948.2684527224942 477.6384258435886 1942.725778532198 475.6387159396387Q1937.183104341902 473.66074201290564 1933.33583637452 470.8350649747156Q1929.4668324299214 468.00938793652546 1927.4019145943207 464.18385594636044Q1925.3587327359373 460.3583239561954 1925.3587327359373 455.2503693102364L1925.3587327359373 455.2503693102364Q1925.3587327359373 450.3597744364459 1927.5323304576223 445.9908430158597Q1929.7059281793067 441.6436475724903 1933.7270839644239 438.27457110387905Q1937.7265037723232 434.92723061248466 1943.3778578487036 433.01446461740215Q1949.0292119250835 431.1016986223196 1955.9847246344748 431.1016986223196L1955.9847246344748 431.1016986223196Q1965.9180662225735 431.1016986223196 1972.9605228408318 434.6011909542319Q1979.9812434818737 438.1224192633611 1983.7198315631713 443.96939713469294Q1987.4801556216858 449.8163750060247 1987.4801556216858 456.92403955593363L1987.4801556216858 456.92403955593363L1973.3300344535182 456.92403955593363Q1973.3300344535182 453.4897551556718 1971.3085885723517 450.2293585731448Q1969.2871426911852 446.99069796783465 1965.418138746586 444.86057220058365Q1961.5708707792041 442.7087104561158 1955.9847246344748 442.7087104561158L1955.9847246344748 442.7087104561158Q1950.116010785926 442.7087104561158 1946.4861025907126 444.51279656511406Q1942.8561943954992 446.29514669689553 1941.2042601270186 449.05561580343505Q1939.5523258585386 451.8160849099746 1939.5523258585386 454.8591217203332L1939.5523258585386 454.8591217203332Q1939.5523258585386 457.1631353053189 1940.356557015562 458.9454854371004Q1941.160788172585 460.74957154609865 1943.2257060081856 462.22761799684423Q1945.2906238437859 463.72740042480666 1949.0292119250835 465.03155905781745Q1952.7895359835984 466.31398171361144 1958.5930419004962 467.6181403466222L1958.5930419004962 467.6181403466222Q1968.743743260764 469.922153931608 1975.3297443574684 473.11734258248447Q1981.894009476956 476.33426721057776 1985.1109341050492 480.985766334983Q1988.306122755926 485.6590014366051 1988.306122755926 492.31021046496016L1988.306122755926 492.31021046496016Q1988.306122755926 497.72246879195507 1986.0673171025906 502.24355205305915Q1983.8067754720387 506.7428993369465 1979.5682599147535 510.0032959194735Q1975.3297443574684 513.2419565247836 1969.4827664861364 515.046042633782Q1963.6357886148048 516.8283927655634 1956.375972224378 516.8283927655634L1956.375972224378 516.8283927655634Q1945.4427756843038 516.8283927655634 1937.8786556128412 512.9376528437479Q1930.3145355413785 509.04691292193223 1926.423795619563 502.85215941513087Q1922.5113197205305 496.65740590832957 1922.5113197205305 489.788837107806L1922.5113197205305 489.788837107806L1936.7266488203486 489.788837107806Q1937.030952501384 495.59234302470406 1940.0957252889598 498.98315547053215Q1943.160498076535 502.3957038935771 1947.5946374287719 503.8085424126722Q1952.0287767810082 505.22138093176716 1956.375972224378 505.22138093176716L1956.375972224378 505.22138093176716Q1962.179478141276 505.22138093176716 1966.1136900175252 503.69986252658794Q1970.0479018937745 502.1566081441918 1972.1128197293751 499.48308294651963Q1974.1777375649754 496.8095577488475 1974.1777375649754 493.37527334858567Z " fill="#ffffff" transform="matrix(0.44007311845486874,0,0,0.4400731184548688,0,91.87508328105835)"/></g></svg>